# xmcd
#
# Track frame offsets:
# 150
# 15390
# 33410
# 50233
# 65415
# 81972
# 99125
# 114614
# 131714
# 147717
# 163801
#
# Disc length: 2401 seconds
#
# Revision: 0
# Processed by: cddbd v1.4PL0 Copyright (c) Steve Scherf et al.
# Submitted via: Axialis_AX_CDPlayer 2.6
#
DISCID=9a095f0b
DTITLE=Kaczor Ferenc - Ígérd meg kislány
DYEAR=1900
DGENRE=
TTITLE0=Ígérd meg kislány
TTITLE1=Muskátlis kis ablak
TTITLE2=Tudom-tudom
TTITLE3=Göncölszekér
TTITLE4=Valahol várnak rám
TTITLE5=Ne menj el
TTITLE6=Ó-ó kislány
TTITLE7=Gyere-gyere ölelj át
TTITLE8=Nem tudok én boldog lenni
TTITLE9=Jóska gyere haza
TTITLE10=Valahol várnak rám
EXTD=
EXTT0=
EXTT1=
EXTT2=
EXTT3=
EXTT4=
EXTT5=
EXTT6=
EXTT7=
EXTT8=
EXTT9=
EXTT10=
PLAYORDER=
